<?xml version="1.0" encoding="UTF-8" standalone="no"?><!-- Generator: Gravit.io --><svg xmlns="http://www.w3.org/2000/svg" xmlns:xlink="http://www.w3.org/1999/xlink" style="isolation:isolate" viewBox="0 0 500 300" width="500pt" height="300pt"><path d=" M 54.241 130.981 C 53.747 134.439 53.006 138.144 52.018 140.367 C 51.524 141.602 50.783 142.59 50.783 144.072 C 50.536 145.554 49.795 147.777 49.301 149.506 C 49.301 149.506 48.807 149.753 48.56 150.247 C 48.066 151.729 47.572 153.705 47.078 155.434 C 46.584 157.657 45.596 159.633 44.855 161.609 C 44.361 164.079 44.114 166.796 43.62 169.266 C 43.373 169.513 42.879 169.266 42.879 169.266 C 42.138 170.007 42.879 171.736 42.138 172.477 C 41.891 172.477 42.138 173.712 42.138 173.959 C 41.891 175.194 41.891 175.441 41.397 176.182 C 40.903 176.676 41.397 178.652 41.397 179.146 C 40.903 182.11 40.409 184.086 39.915 186.062 C 38.927 189.767 38.186 193.966 37.692 197.671 C 37.445 200.882 38.186 205.081 36.951 206.069 C 36.457 206.563 37.692 207.057 37.692 206.81 C 38.186 209.527 36.951 211.503 39.174 212.244 C 39.174 211.75 39.668 211.256 39.915 212.244 C 40.903 212.244 40.656 210.762 41.397 210.515 C 41.15 214.961 42.138 211.256 42.879 211.503 C 43.126 211.503 42.632 213.232 43.62 212.985 C 43.126 212.244 44.114 211.503 44.114 211.503 C 44.361 209.774 43.373 210.515 42.879 209.774 C 41.891 208.539 39.915 209.033 39.915 206.81 C 40.903 206.563 39.668 197.424 41.397 196.189 C 40.656 196.683 41.891 199.4 42.138 199.153 C 42.385 197.424 41.891 195.695 42.138 193.719 C 42.138 192.978 42.632 192.731 42.879 191.496 C 43.126 188.779 42.632 187.791 43.62 186.803 C 44.608 186.062 42.632 183.839 42.879 183.098 C 42.879 182.851 44.114 183.345 44.114 183.098 C 45.349 182.11 43.373 180.134 43.62 179.146 C 43.373 179.393 44.114 178.899 44.114 178.405 C 44.361 177.911 44.114 176.923 44.114 176.182 C 44.114 176.182 44.855 176.182 44.855 176.182 C 45.349 175.935 44.855 173.712 44.855 173.218 C 44.855 172.971 45.596 173.218 45.596 173.218 C 46.09 172.724 45.596 170.748 45.596 170.007 C 45.596 170.007 46.337 170.254 46.337 170.007 C 46.831 169.76 46.337 167.537 46.337 167.043 C 46.337 167.043 47.078 167.043 47.078 167.043 C 47.572 166.549 47.078 164.573 47.078 164.079 C 47.819 160.868 49.548 154.94 50.042 153.211 C 50.289 151.976 50.289 150.988 50.783 150.247 C 51.277 148.765 51.277 148.024 51.524 146.295 C 51.524 145.554 52.018 145.801 52.018 145.554 C 53.006 141.849 53.5 139.626 54.241 136.415 C 54.735 134.439 56.958 130.981 54.241 130.981 Z  M 173.048 101.341 C 174.036 102.329 174.53 103.564 174.53 100.353 C 174.53 99.612 173.295 99.365 174.53 98.871 C 174.53 99.365 174.53 99.859 175.271 99.612 C 174.53 97.389 176.506 97.389 175.765 95.166 C 176.753 94.672 178.482 92.943 178.729 92.943 C 178.976 92.696 178.482 91.461 178.729 91.214 C 179.223 90.72 180.952 90.72 180.952 89.732 C 180.952 88.25 182.434 88.003 183.175 87.509 C 183.669 87.015 183.916 83.31 184.41 86.027 C 183.175 89.979 182.187 95.166 181.693 98.871 C 181.446 99.859 179.717 102.082 181.693 102.823 C 182.434 99.365 183.422 96.895 184.41 94.425 C 184.657 94.178 184.904 94.178 185.151 93.684 C 185.398 92.943 185.151 91.955 185.892 91.955 C 185.892 95.907 184.41 100.106 183.916 102.082 C 183.669 102.082 183.916 102.576 183.916 102.823 C 183.669 103.564 183.175 103.317 183.175 103.564 C 181.94 106.528 181.199 108.751 180.211 111.221 C 179.964 111.715 179.47 112.209 179.47 112.703 C 179.47 113.444 178.976 113.197 178.729 113.444 C 177.494 116.655 176.506 120.607 175.271 124.065 C 174.53 125.794 173.541 127.77 173.048 129.499 C 172.554 130.981 171.566 133.451 171.566 134.192 C 171.566 134.933 170.825 134.686 170.825 134.933 C 170.331 136.909 170.578 137.897 170.084 138.638 C 170.084 138.885 170.084 139.379 170.084 139.379 C 170.084 140.12 169.343 140.12 169.343 140.367 C 168.849 142.343 169.096 145.06 168.602 147.036 C 168.602 147.283 168.108 147.283 167.861 148.024 C 167.861 148.271 168.108 149.012 167.861 149.506 C 167.367 152.47 166.626 155.434 166.626 157.904 C 166.379 158.398 165.885 158.398 165.885 158.645 C 165.391 161.362 165.144 165.067 165.144 167.043 C 165.144 167.784 164.403 167.537 164.403 167.784 C 163.909 170.007 163.662 170.995 163.662 172.477 C 163.662 174.206 162.427 175.935 162.18 176.923 C 161.686 179.146 161.933 181.863 161.439 183.839 C 161.439 184.086 160.204 185.074 159.957 185.321 C 159.71 186.556 160.204 188.038 159.957 189.273 C 159.463 190.014 157.487 189.52 157.981 191.496 C 157.24 199.647 155.758 212.491 159.216 218.172 C 160.204 218.666 161.439 218.419 162.18 219.16 C 163.662 220.395 163.909 219.407 165.885 219.16 C 169.837 218.419 174.036 220.148 175.765 220.642 C 177.988 221.136 179.964 221.877 180.952 222.124 C 181.446 222.124 181.94 221.877 182.434 222.124 C 184.904 222.865 187.127 224.594 188.856 223.606 C 190.338 221.877 188.856 219.901 188.115 218.172 C 188.115 217.184 189.844 217.678 189.597 215.949 C 188.362 214.467 187.127 212.985 186.633 210.515 C 187.621 210.515 188.856 213.973 188.856 210.515 C 189.35 210.515 189.597 210.515 189.597 209.774 C 186.633 208.786 187.127 205.575 187.374 203.105 C 187.621 199.894 187.621 197.671 188.115 194.46 C 188.115 194.707 188.609 194.213 188.856 193.719 C 189.597 191.002 189.103 187.297 189.597 185.321 C 190.338 182.11 191.079 177.664 191.82 173.959 C 192.314 169.76 193.302 166.549 193.796 164.079 C 194.537 160.374 194.537 156.916 195.278 153.211 C 195.278 153.211 196.019 152.964 196.019 152.47 C 196.019 151.976 196.019 151.482 196.019 150.988 C 196.513 148.765 197.995 143.578 198.242 142.59 C 198.242 142.096 197.995 141.602 198.242 141.108 C 198.736 138.638 199.971 133.698 200.465 132.71 C 201.947 125.547 203.182 119.866 204.664 113.444 C 205.405 110.48 207.134 104.799 207.628 102.823 C 207.875 101.835 208.122 101.094 208.369 100.353 C 208.863 97.636 209.11 96.401 209.604 94.425 C 210.098 92.449 210.098 91.955 210.345 90.473 C 210.839 88.25 211.827 87.509 211.827 85.286 C 211.827 84.545 212.568 84.545 212.568 84.298 C 213.062 82.322 212.815 82.322 213.309 80.593 C 213.803 78.864 215.285 74.418 215.532 73.677 C 215.779 72.689 216.026 72.195 216.273 71.454 C 216.52 70.466 216.767 69.725 216.767 68.984 C 217.014 68.243 217.508 67.502 217.508 66.761 C 217.755 65.773 218.249 65.279 218.249 64.538 C 218.496 63.55 218.99 62.809 218.99 62.315 C 219.237 61.327 219.731 60.586 219.731 59.845 C 219.978 58.857 220.225 58.363 220.472 57.622 C 220.719 56.634 220.966 55.893 221.213 55.399 C 221.46 54.411 221.707 53.67 221.954 52.929 C 222.448 50.212 223.189 48.236 223.436 46.26 C 223.436 44.284 223.436 42.308 223.436 41.567 C 223.436 41.073 224.177 39.838 224.177 40.085 C 223.93 38.356 222.695 37.862 222.695 36.133 C 223.189 34.651 224.424 33.663 224.177 30.946 C 221.954 29.464 222.201 28.229 218.99 29.217 C 221.213 26.5 216.767 25.512 216.273 23.289 C 213.803 22.795 212.815 23.783 211.086 24.03 C 210.345 22.795 210.592 20.572 208.369 20.819 C 206.393 20.819 206.146 22.054 204.664 22.548 C 203.922 20.325 202.935 18.596 202.441 16.373 C 200.465 15.632 199.23 17.855 198.983 17.855 C 198.242 18.102 197.995 16.867 197.501 17.114 C 197.501 17.114 197.007 17.855 196.76 17.855 C 195.278 18.843 194.784 19.09 193.796 20.078 C 193.796 20.325 192.808 19.831 192.314 20.078 C 192.067 20.325 191.079 21.56 190.338 22.548 C 187.868 25.018 185.892 26.994 183.916 29.217 C 182.434 30.946 180.952 32.181 179.47 33.91 C 178.729 34.898 178.235 36.874 177.247 36.874 C 175.765 37.121 176.753 39.097 175.271 39.344 C 174.283 39.344 174.283 41.073 173.789 41.567 C 171.566 44.037 169.343 46.013 167.367 48.483 C 165.885 49.965 164.897 51.2 163.662 52.188 C 163.415 52.435 163.909 53.423 163.662 53.917 C 162.427 55.152 160.698 56.14 159.957 56.881 C 159.463 57.622 159.71 58.61 159.216 59.104 C 158.228 60.833 156.252 62.068 155.017 63.797 C 154.276 64.785 154.276 66.02 153.534 66.761 C 152.794 67.749 152.053 68.243 151.312 68.984 C 148.842 72.689 146.372 76.394 144.149 80.593 C 143.902 81.334 143.654 81.828 143.408 82.816 C 143.408 84.298 142.173 84.792 142.173 86.027 C 141.926 86.768 141.679 86.274 141.432 86.768 C 140.691 87.756 140.691 88.991 139.95 89.732 C 138.962 91.214 135.751 93.931 135.504 95.166 C 135.504 95.907 135.01 95.413 134.763 95.907 C 134.269 97.389 134.022 99.612 133.528 101.341 C 133.034 102.576 131.305 104.305 132.787 104.305 C 135.01 100.847 136.986 97.142 139.95 94.425 C 139.703 96.154 137.727 97.142 137.727 98.13 C 137.727 99.365 136.245 99.365 136.245 100.353 C 136.245 101.588 135.01 101.835 134.763 102.823 C 134.763 103.564 134.516 103.07 134.269 103.564 C 133.034 105.293 132.046 108.751 131.305 109.739 C 130.81 110.233 130.07 110.974 129.822 111.962 C 129.822 112.456 130.07 113.444 130.564 113.444 C 130.564 112.456 130.81 111.715 132.046 111.962 C 132.046 109.739 133.528 109.492 134.269 108.998 C 134.269 108.751 134.022 107.516 134.269 107.269 C 134.516 106.775 135.257 106.281 135.504 105.787 C 137.233 103.564 138.468 101.588 139.95 99.612 C 140.938 98.377 141.926 97.142 142.666 95.907 C 143.654 94.672 143.902 93.931 144.149 92.943 C 144.396 92.696 145.384 92.202 145.63 91.955 C 146.125 91.461 145.878 90.473 146.372 89.732 C 146.866 89.238 148.101 88.744 148.594 88.25 C 149.089 87.509 148.842 86.768 149.336 86.027 C 149.582 85.286 151.065 85.039 151.312 84.298 C 151.806 83.804 151.806 82.569 152.053 82.075 C 152.3 81.828 153.288 81.581 153.534 81.334 C 153.782 81.087 153.288 80.099 153.534 79.852 C 154.276 78.617 155.758 78.123 156.499 77.629 C 156.746 77.382 156.252 76.147 156.499 75.9 C 157.487 74.912 159.216 74.171 159.957 72.936 C 160.451 72.442 160.451 71.207 160.698 70.713 C 161.192 69.972 162.427 69.725 162.921 68.984 C 163.415 68.49 163.168 67.255 163.662 66.761 C 164.156 66.267 165.391 66.02 165.885 65.279 C 166.379 64.538 166.132 63.797 166.626 63.056 C 166.873 62.315 168.108 62.068 168.602 61.574 C 170.578 59.104 172.801 56.881 174.53 55.399 C 174.777 55.152 174.283 54.164 174.53 53.917 C 175.518 52.682 177 51.694 177.988 50.706 C 177.494 52.435 176.012 53.176 175.271 53.917 C 175.024 53.917 175.271 55.152 175.271 55.399 C 174.777 55.893 173.541 56.14 173.048 56.881 C 172.801 57.128 173.048 58.116 173.048 58.363 C 172.801 58.61 171.813 58.857 171.566 59.104 C 171.319 59.598 171.813 60.339 171.566 60.586 C 171.566 60.833 170.331 61.08 170.084 61.574 C 170.084 61.574 169.343 62.809 169.343 63.056 C 169.343 63.797 169.096 63.303 168.602 63.797 C 167.861 65.032 166.626 66.514 166.626 67.502 C 166.379 68.49 166.132 67.996 165.885 68.243 C 164.897 69.725 164.897 70.713 164.403 72.195 C 164.156 72.442 163.168 72.689 162.921 72.936 C 161.933 74.665 161.686 76.641 160.698 78.37 C 160.698 78.37 160.204 78.617 159.957 79.111 C 159.216 80.593 158.722 80.346 158.722 82.075 C 158.475 83.804 153.782 86.274 156.499 87.509 C 156.252 85.286 158.475 85.78 158.722 84.298 C 158.722 83.063 161.686 80.593 162.18 79.852 C 162.921 78.864 163.662 77.876 164.403 76.641 C 166.626 73.924 168.849 71.207 170.825 68.984 C 171.072 68.737 172.06 66.02 173.048 67.502 C 167.367 75.159 161.192 82.075 156.499 90.473 C 155.758 91.955 154.029 92.943 156.499 93.684 C 156.252 92.202 157.981 92.696 158.722 91.955 C 158.969 91.708 158.475 90.72 158.722 90.473 C 158.969 90.226 159.71 89.979 159.957 89.732 C 160.698 89.238 160.945 88.744 161.439 88.25 C 161.933 87.756 162.674 88.003 162.921 87.509 C 163.168 87.262 162.674 86.274 162.921 86.027 C 163.168 85.78 164.156 86.274 164.403 86.027 C 165.391 85.039 166.379 83.804 167.367 82.816 C 167.367 82.816 167.12 82.322 167.367 82.075 C 167.367 81.828 168.355 82.322 168.602 82.075 C 168.849 81.828 168.355 80.84 168.602 80.593 C 168.849 80.346 169.837 80.84 170.084 80.593 C 171.072 79.605 171.319 77.876 172.307 76.641 C 172.554 76.394 173.295 76.394 173.789 75.9 C 174.283 75.406 174.036 74.171 174.53 73.677 C 174.777 73.43 175.765 73.924 175.765 73.677 C 176.012 73.43 175.765 72.442 175.765 72.195 C 176.506 71.701 177.741 72.195 177.988 71.454 C 177.247 75.653 175.518 78.864 174.53 82.816 C 173.048 83.557 171.813 84.792 170.825 86.027 C 169.59 87.262 168.355 88.497 167.367 89.732 C 164.897 92.449 162.427 94.919 159.957 97.389 C 158.969 98.871 158.475 100.6 157.24 102.082 C 156.005 103.317 154.77 104.552 153.534 105.787 C 152.546 107.022 151.065 108.257 150.077 109.739 C 148.842 110.974 148.348 112.95 147.113 114.185 C 146.618 114.679 146.125 115.173 145.63 115.667 C 143.902 118.137 142.42 119.619 140.691 121.842 C 136.245 127.77 131.799 133.204 127.6 138.638 C 125.624 141.602 123.648 144.813 121.178 147.036 C 121.919 145.307 119.943 144.319 119.696 142.59 C 119.449 140.12 119.943 137.65 119.696 134.933 C 119.696 133.698 119.202 132.216 118.955 130.981 C 118.708 127.276 118.461 124.312 118.214 121.842 C 117.967 118.137 117.72 115.667 117.72 113.444 C 117.226 105.787 117.967 97.142 118.214 91.955 C 118.461 89.485 117.473 87.015 117.72 84.298 C 117.72 82.816 118.214 81.581 118.214 79.852 C 118.708 75.653 117.967 71.948 118.214 67.502 C 118.461 64.291 119.696 60.833 119.696 57.622 C 119.943 52.929 119.943 49.718 120.437 47.001 C 120.931 45.272 121.425 43.79 121.178 42.308 C 121.178 42.061 120.437 41.32 120.437 41.567 C 120.437 40.579 121.425 40.579 121.178 39.344 C 120.931 37.121 120.437 36.38 118.955 34.651 C 116.732 33.91 117.226 35.886 116.238 36.133 C 115.744 31.934 114.015 29.464 110.31 28.476 C 108.828 28.723 108.828 30.946 107.593 31.687 C 107.593 28.723 105.37 28.229 104.629 26.253 C 102.406 26.5 101.418 27.982 99.689 28.476 C 98.947 27.735 98.701 26.5 98.947 24.771 C 96.971 25.018 98.453 21.807 95.983 22.548 C 94.255 22.301 95.243 24.524 93.761 24.771 C 93.514 23.783 93.02 23.289 91.785 23.289 C 88.327 28.97 85.61 36.38 83.14 42.308 C 82.399 43.543 81.905 44.531 81.658 45.272 C 81.411 45.766 81.905 46.507 81.658 47.001 C 81.411 47.248 80.423 47.989 80.176 48.483 C 79.929 49.224 79.682 50.212 79.435 50.706 C 78.694 52.682 77.953 54.658 77.212 55.399 C 77.212 55.399 76.471 57.622 76.718 57.622 C 76.471 58.116 76.718 58.857 76.718 59.104 C 76.471 59.598 75.483 60.339 75.236 60.586 C 74.742 61.327 74.742 62.315 74.495 63.056 C 72.272 68.737 70.543 74.665 68.567 79.852 C 68.567 80.099 68.073 79.852 68.073 80.593 C 67.826 81.581 67.332 82.322 67.332 82.816 C 67.085 83.804 66.591 84.545 66.591 85.286 C 66.097 86.768 65.108 88.003 66.591 88.25 C 66.838 87.262 67.332 84.792 68.073 83.557 C 68.073 83.31 69.061 82.569 69.308 82.075 C 69.802 81.581 69.555 79.852 70.049 81.334 C 68.32 84.298 71.284 80.593 70.79 83.557 C 70.049 84.298 69.308 87.015 69.308 87.509 C 69.308 88.25 68.814 88.003 68.567 88.25 C 67.826 90.72 67.826 92.449 67.332 94.425 C 67.332 94.425 66.591 94.178 66.591 94.425 C 66.344 94.425 66.591 95.66 66.591 95.907 C 66.097 97.142 65.108 100.847 65.108 101.341 C 65.108 101.341 66.344 101.094 66.591 101.341 C 66.838 101.588 65.85 102.576 65.85 102.823 C 65.85 103.811 65.602 105.54 66.591 105.787 C 67.332 103.07 67.332 99.118 69.308 97.389 C 68.814 101.341 66.591 106.034 66.591 108.998 C 66.591 109.492 65.85 109.492 65.85 109.739 C 65.356 112.209 65.602 115.42 65.108 118.137 C 65.108 117.89 64.368 118.631 64.368 118.878 C 64.368 119.125 64.368 119.372 64.368 119.619 C 64.368 120.36 63.627 120.113 63.627 120.36 C 63.38 121.348 63.874 122.336 63.627 123.324 C 63.38 126.288 61.898 131.228 61.404 132.71 C 60.663 135.921 60.169 138.144 60.169 141.108 C 59.922 141.602 59.428 141.602 59.428 141.849 C 58.934 143.331 58.934 145.554 58.687 147.036 C 57.205 152.964 55.229 160.621 54.982 166.302 C 54.982 168.772 53.253 171.983 54.982 173.959 C 55.723 167.537 59.675 160.868 60.169 155.434 C 60.169 154.693 60.663 154.94 60.663 154.693 C 61.404 152.47 61.404 150 62.145 148.024 C 62.145 147.777 62.639 147.53 62.886 147.036 C 63.627 145.554 63.874 143.578 64.368 141.849 C 64.614 141.355 65.108 140.614 65.108 140.367 C 65.108 139.379 65.602 139.873 65.85 139.379 C 66.097 138.391 66.097 136.662 66.591 135.674 C 67.826 131.475 69.308 127.523 70.79 123.324 C 73.754 115.173 76.471 107.022 79.435 98.871 C 79.682 98.377 80.176 98.377 80.176 98.13 C 80.917 96.895 81.164 94.178 81.658 92.943 C 81.658 92.943 82.152 92.202 82.399 91.955 C 82.893 90.967 83.881 88.991 83.881 88.25 C 83.881 87.509 84.375 87.756 84.622 87.509 C 86.104 83.31 86.845 79.358 89.562 75.9 C 90.55 79.111 88.327 83.063 88.08 85.286 C 88.08 86.027 87.586 85.78 87.339 86.027 C 86.598 88.744 86.351 91.708 85.116 92.943 C 85.116 92.943 85.363 94.178 85.116 94.425 C 84.375 96.401 84.128 99.612 83.14 100.353 C 82.893 100.6 83.14 101.835 83.14 102.082 C 82.399 104.058 82.152 105.293 81.658 107.269 C 81.411 107.763 80.917 108.01 80.917 108.01 C 80.176 110.727 79.929 112.95 79.435 114.926 C 79.435 115.42 78.694 115.667 78.694 115.667 C 78.447 117.396 78.447 119.125 77.953 120.36 C 77.212 123.077 76.471 125.547 75.977 128.017 C 74.989 130.981 74.248 133.451 73.754 136.415 C 73.507 137.403 72.272 139.379 73.754 140.367 C 73.754 137.897 75.236 135.427 75.977 133.451 C 76.718 130.734 77.706 127.276 78.694 126.535 C 78.941 126.288 78.694 125.3 78.694 125.053 C 78.694 124.806 79.435 125.053 79.435 125.053 C 79.682 124.806 79.435 123.818 79.435 123.324 C 80.917 120.113 81.905 116.902 83.881 114.185 C 83.881 115.42 83.634 117.149 84.622 117.396 C 85.61 115.42 84.869 111.468 88.08 111.962 C 87.586 113.691 86.845 115.173 86.598 115.667 C 86.104 117.396 83.881 122.336 85.116 122.583 C 84.869 121.842 85.857 121.348 85.857 121.101 C 86.351 120.36 86.104 119.619 86.598 118.878 C 86.845 118.384 87.833 117.89 88.08 117.396 C 88.574 116.408 88.574 115.667 88.821 114.926 C 89.068 114.679 90.056 114.679 90.303 114.185 C 90.55 113.691 90.797 112.456 91.044 111.962 C 91.538 110.727 92.032 108.998 93.267 108.01 C 93.267 111.468 91.538 113.938 90.303 116.655 C 89.809 117.396 90.056 117.89 89.562 118.878 C 89.315 119.372 88.327 119.866 88.08 120.36 C 87.586 121.101 87.833 121.842 87.339 122.583 C 87.092 123.077 86.104 123.571 85.857 124.065 C 85.116 125.547 85.116 127.276 84.622 128.758 C 84.375 129.252 83.387 129.746 83.14 130.24 C 82.646 130.981 82.646 131.969 82.399 132.71 C 81.164 135.427 80.176 138.144 78.694 141.108 C 78.447 141.849 78.447 142.343 77.953 143.331 C 77.706 143.825 76.965 144.319 76.718 144.813 C 76.224 145.554 76.224 146.295 75.977 147.036 C 75.73 147.53 74.742 148.271 74.495 148.765 C 74.248 149.012 74.495 149.753 74.495 150.247 C 74.248 150.988 73.754 150.741 73.754 150.988 C 73.507 151.729 73.507 152.47 73.013 153.211 C 72.766 153.705 71.778 154.199 71.531 154.693 C 71.037 155.681 71.284 156.175 70.79 157.163 C 70.543 157.41 69.555 158.151 69.308 158.645 C 69.061 159.386 68.814 160.374 68.567 160.868 C 68.073 162.103 67.826 164.079 67.332 165.561 C 67.085 165.808 66.097 166.549 65.85 167.043 C 65.602 167.537 65.85 168.031 65.85 168.525 C 65.356 170.254 63.874 172.23 63.627 173.959 C 62.639 173.959 62.639 172.971 61.404 173.218 C 61.404 173.712 61.651 174.206 61.404 174.7 C 61.404 175.194 60.91 175.194 60.663 175.441 C 60.416 176.429 60.416 177.17 60.169 178.405 C 58.44 183.098 55.723 189.273 54.241 192.978 C 53.747 194.213 53.747 194.954 53.5 196.189 C 53.5 196.683 53.006 196.683 52.759 196.93 C 52.018 199.4 51.277 202.364 50.783 203.846 C 50.042 205.328 50.042 205.822 50.042 207.551 C 50.042 208.292 49.301 208.045 49.301 208.292 C 47.078 215.455 46.337 222.618 46.337 231.263 C 50.783 232.251 51.277 228.793 54.241 228.299 C 54.735 232.004 61.157 229.534 63.627 231.263 C 64.614 231.016 64.12 230.522 63.627 229.781 C 65.356 228.546 66.344 227.558 67.332 226.817 C 68.567 225.582 67.826 222.618 68.073 220.642 C 68.073 219.654 68.567 218.913 68.567 217.431 C 68.814 216.69 68.567 215.949 68.567 215.208 C 68.814 214.714 69.308 214.467 69.308 214.467 C 69.802 211.997 69.555 209.28 70.049 206.81 C 70.79 202.611 72.025 198.165 73.013 193.719 C 73.507 191.496 73.26 189.026 73.754 186.803 C 73.754 186.803 74.495 187.05 74.495 186.803 C 75.236 186.062 74.248 184.58 75.236 183.839 C 75.236 183.592 75.236 181.863 75.236 181.616 C 75.236 180.875 75.73 180.875 75.977 180.875 C 76.471 178.405 75.73 177.911 76.718 176.923 C 76.718 176.923 76.471 175.688 76.718 175.441 C 77.459 172.971 77.953 169.76 78.694 167.043 C 80.917 158.398 83.387 150 85.857 141.849 C 87.092 138.391 89.315 134.192 89.562 130.981 C 89.562 130.24 90.056 130.487 90.303 130.24 C 91.044 128.264 91.044 125.547 91.785 123.324 C 91.785 123.571 92.279 122.83 92.526 122.583 C 93.267 121.101 93.02 118.878 94.502 118.137 C 95.983 127.523 98.207 136.168 99.689 145.554 C 102.653 146.789 99.689 141.602 101.665 141.849 C 101.418 142.343 102.406 142.59 102.406 142.59 C 102.653 143.084 101.665 143.331 101.665 143.331 C 101.912 146.048 103.394 147.283 101.665 148.765 C 101.418 149.012 102.406 149.753 102.406 149.506 C 102.653 154.94 102.406 159.386 102.406 164.82 C 104.629 164.079 104.629 166.055 106.852 165.561 C 106.605 166.549 107.84 165.808 108.334 166.302 C 108.828 166.796 108.087 168.525 109.816 167.784 C 111.298 167.537 111.298 165.314 112.533 164.82 C 114.756 167.29 118.461 167.537 121.178 167.043 C 122.413 166.796 123.648 165.314 124.883 164.079 C 125.871 162.844 126.859 162.35 127.6 161.609 C 127.847 161.362 127.353 160.374 127.6 160.127 C 128.094 159.633 128.588 159.139 129.082 158.645 C 130.317 157.163 131.058 156.422 132.046 155.434 C 132.293 155.434 131.799 154.199 132.046 153.952 C 132.54 153.458 133.775 153.211 134.269 152.47 C 134.516 151.729 134.269 150.988 134.763 150.247 C 135.257 149.506 136.492 149.259 136.986 148.765 C 137.48 148.024 137.48 147.036 137.727 146.295 C 137.974 146.295 138.221 146.048 138.468 145.554 C 139.456 144.072 140.691 142.837 141.432 141.849 C 141.679 141.108 141.679 140.861 142.173 140.367 C 143.161 138.885 144.89 137.65 145.63 136.415 C 146.125 135.921 146.125 134.686 146.372 134.192 C 146.372 133.945 146.866 133.698 147.113 133.451 C 148.101 131.475 149.582 130.487 150.818 129.499 C 151.065 129.252 150.57 128.264 150.818 128.017 C 151.312 127.029 152.546 126.288 152.794 125.794 C 153.288 125.053 153.288 124.559 153.534 124.065 C 154.522 122.83 156.252 121.595 157.24 120.36 C 157.487 120.113 156.993 119.125 157.24 118.878 C 157.487 118.631 158.475 119.125 158.722 118.878 C 158.722 118.631 158.475 117.643 158.722 117.396 C 158.722 117.149 159.957 116.655 159.957 116.655 C 160.451 115.914 160.204 114.926 160.698 114.185 C 161.192 113.691 162.427 113.444 162.921 112.703 C 163.415 112.209 163.168 110.974 163.662 110.48 C 164.156 109.739 165.391 109.492 165.885 108.998 C 166.873 107.516 167.367 104.799 169.343 105.046 C 167.367 113.197 165.391 125.053 163.662 132.71 C 163.415 133.451 163.662 134.686 163.662 135.674 C 163.415 136.909 161.686 138.638 163.662 139.379 C 165.638 129.993 167.861 121.101 170.084 112.703 C 170.825 109.739 172.554 106.775 172.307 103.564 C 174.777 105.046 172.554 103.564 173.048 101.341 Z  M 190.338 59.845 C 190.832 59.351 190.832 58.61 191.079 57.622 C 193.549 57.869 190.338 60.339 190.338 60.586 C 190.091 61.08 191.326 62.068 191.079 63.056 C 190.832 63.303 190.338 63.056 190.338 63.797 C 190.338 64.785 189.103 64.785 188.856 65.279 C 188.609 65.526 189.103 66.514 188.856 66.761 C 187.621 68.243 185.151 69.478 184.41 71.454 C 182.681 71.454 185.151 69.478 185.151 68.984 C 185.892 67.502 185.645 66.02 186.633 64.538 C 186.88 64.291 187.374 63.797 187.374 63.797 C 187.868 62.809 187.621 61.574 188.115 60.586 C 188.362 60.339 189.844 60.339 190.338 59.845 Z  M 102.406 102.823 C 103.147 97.883 103.641 89.485 103.147 82.075 C 104.629 83.557 103.888 85.533 103.888 87.509 C 103.888 88.991 103.888 91.214 103.888 92.943 C 104.382 100.847 105.37 113.197 106.111 122.583 C 107.593 122.583 106.358 119.372 106.852 118.137 C 107.84 118.384 107.346 119.866 107.593 121.101 C 106.605 128.758 105.864 132.463 105.37 141.108 C 103.147 140.614 104.382 136.662 103.147 134.933 C 102.9 133.698 101.912 135.674 101.665 134.192 C 102.406 125.794 98.947 119.619 101.665 114.926 C 102.406 114.185 101.171 110.48 101.171 111.221 C 101.171 109.986 102.159 108.504 102.406 107.269 C 102.653 106.281 102.406 103.811 102.406 102.823 Z  M 108.334 116.655 C 108.087 117.89 107.346 116.161 107.593 114.926 C 107.84 113.444 108.334 115.42 108.334 116.655 Z  M 106.852 151.729 C 105.864 151.235 105.37 147.53 105.37 145.554 C 106.605 146.789 106.852 149.012 106.852 151.729 Z  M 107.593 157.163 C 107.099 156.916 106.358 155.434 106.852 153.211 C 108.334 154.693 108.334 157.163 108.334 160.127 C 106.852 160.374 108.087 157.657 107.593 157.163 Z  M 109.816 164.079 C 109.322 166.055 107.346 164.079 108.334 162.35 C 109.075 162.597 108.828 164.079 109.816 164.079 Z  M 57.946 124.065 C 58.687 121.842 59.922 119.619 60.169 116.655 C 61.651 115.914 60.663 112.703 62.145 111.962 C 62.145 111.221 61.898 109.986 61.404 111.221 C 60.91 112.95 59.428 115.42 59.428 116.655 C 59.181 117.396 58.687 116.902 58.687 117.396 C 57.946 119.125 57.699 120.607 57.205 121.101 C 56.711 121.595 57.452 124.559 57.946 124.065 Z  M 319.766 155.681 C 319.519 156.669 318.778 155.434 317.543 155.681 C 315.814 158.645 310.874 164.079 309.886 167.29 C 309.145 170.501 309.886 167.784 310.627 169.266 C 308.898 170.254 308.898 172.477 307.169 173.465 C 305.934 175.935 307.416 173.218 307.91 174.947 C 306.922 175.688 306.922 176.676 306.428 177.664 L 305.934 177.664 C 305.687 177.911 305.934 178.899 305.934 178.899 C 305.687 179.393 304.699 179.887 304.452 180.381 L 304.452 181.122 C 304.452 181.863 303.958 181.369 303.711 181.863 C 303.711 182.11 303.464 182.11 303.464 182.11 C 303.464 182.604 303.217 182.851 303.217 183.098 L 302.97 183.345 C 302.723 183.839 302.723 184.333 302.476 184.58 C 302.229 185.074 302.476 184.333 302.723 183.345 C 302.476 183.345 301.982 183.592 301.982 183.839 C 301.735 184.086 300.994 185.815 300.994 185.815 C 300.994 186.556 300.5 186.062 300.253 186.556 C 300.006 187.297 300.006 187.791 299.512 188.532 C 299.265 189.273 298.03 190.014 297.536 190.508 L 297.536 191.249 C 297.536 192.237 297.042 191.743 296.795 191.99 L 296.301 193.966 C 295.807 194.707 294.572 195.448 294.078 195.942 C 293.831 196.436 293.584 197.177 293.584 197.424 C 293.337 198.165 292.102 198.906 292.102 199.647 C 292.102 200.388 291.608 199.894 291.361 200.388 C 289.138 203.846 287.409 207.057 284.692 209.28 C 284.692 210.268 283.457 210.515 284.692 210.515 C 286.668 207.798 289.879 204.834 291.361 202.364 C 292.349 200.882 293.337 200.388 294.078 199.647 C 294.325 199.4 293.831 198.659 294.078 198.165 C 294.325 197.918 295.313 197.918 295.56 197.424 C 296.054 196.93 295.807 195.942 296.301 195.448 C 296.795 194.707 297.783 194.213 298.277 193.225 C 299.018 192.484 299.018 190.755 300.253 190.508 C 299.512 191.743 299.512 193.225 299.018 194.707 C 299.018 195.201 297.783 195.942 297.536 195.942 C 297.042 196.93 297.042 198.165 297.536 198.165 C 298.524 197.177 299.018 195.942 299.512 194.707 C 300.006 194.213 300.747 193.719 300.994 193.225 C 301.241 193.225 301.735 192.237 301.982 191.99 C 301.982 191.249 302.229 191.743 302.476 191.249 C 304.205 188.779 304.946 185.815 307.416 184.333 C 306.428 186.309 303.958 189.026 303.958 190.508 C 303.711 191.99 302.476 192.484 302.476 193.225 C 302.229 194.213 301.982 193.719 301.982 193.966 C 301.241 194.954 301.735 195.942 300.994 196.683 C 300.747 197.424 299.759 197.424 299.512 198.165 C 299.512 199.153 298.524 199.4 298.277 200.388 C 298.277 201.623 296.795 201.87 296.301 202.364 C 296.054 202.611 296.301 203.599 296.301 203.846 C 295.807 204.34 294.572 204.587 294.078 205.081 C 293.584 205.822 293.337 207.304 292.843 207.798 C 292.102 208.786 290.62 209.033 290.62 210.021 C 290.62 211.75 287.409 212.985 287.409 213.973 C 287.409 214.961 286.915 214.467 286.668 214.714 C 285.186 216.937 282.963 218.913 280.246 219.16 C 277.529 217.925 277.776 214.961 277.529 211.997 C 277.282 209.28 277.282 209.527 277.529 207.798 C 278.27 205.328 276.788 203.846 276.788 202.364 C 277.035 200.635 277.529 199.894 277.529 198.165 C 277.529 197.671 278.27 197.671 278.27 197.424 C 278.517 196.683 278.27 195.695 278.27 194.707 C 278.27 194.213 279.011 194.213 279.011 193.966 C 279.011 193.225 278.27 193.225 278.27 192.731 C 278.27 192.731 279.011 192.484 279.011 191.99 C 279.011 191.002 279.258 190.508 279.505 190.014 C 279.999 189.026 280.246 187.791 280.246 187.297 C 280.987 185.074 280.74 184.827 280.987 183.098 C 281.728 182.851 281.975 182.357 281.728 181.616 C 280.74 181.616 281.234 182.851 280.246 183.098 C 280.246 185.321 278.517 188.532 277.529 189.273 L 276.788 191.99 C 276.541 192.978 276.294 194.213 275.553 194.707 C 274.812 190.508 276.294 187.297 277.529 183.839 C 279.011 178.652 280.246 174.206 281.728 169.76 C 282.469 167.537 282.963 165.314 284.692 163.832 L 283.21 169.76 C 282.469 171.983 280.987 173.959 282.222 175.441 C 282.469 172.724 283.457 171.736 283.951 169.76 C 284.198 168.278 284.692 167.043 285.186 165.808 C 285.186 165.067 285.68 165.314 285.927 165.067 C 286.915 162.597 287.162 160.374 287.903 158.151 C 287.903 157.904 288.397 158.151 288.644 157.41 C 288.644 156.916 288.397 156.422 288.644 155.928 C 288.644 155.681 289.879 155.187 290.126 154.693 C 290.373 154.199 289.879 153.705 290.126 153.211 C 290.62 151.729 291.855 149.753 292.102 149.259 C 292.102 148.765 291.855 148.024 292.102 147.777 C 292.349 147.283 293.337 146.542 293.584 146.542 C 294.078 145.06 294.078 143.084 295.56 142.096 C 295.56 143.578 293.337 147.777 294.819 146.542 L 297.536 140.12 C 297.783 139.873 298.277 139.132 298.277 138.638 L 299.512 135.921 C 299.759 135.674 300.253 135.674 300.253 135.18 C 301.735 133.204 302.476 131.475 303.217 129.005 C 304.205 129.005 304.699 128.758 305.193 128.511 C 305.193 126.535 306.428 125.794 307.416 124.065 C 308.157 123.077 308.157 122.583 308.651 121.348 C 308.651 121.101 309.886 121.101 310.133 120.607 C 310.627 120.113 310.38 118.631 310.874 117.396 C 311.121 116.161 311.368 114.679 312.109 113.938 C 311.121 112.209 310.627 114.679 310.133 113.197 C 309.145 112.209 309.639 109.986 308.651 108.998 C 306.922 108.257 306.428 111.715 305.934 109.739 C 305.934 108.504 305.687 107.516 305.193 107.022 C 302.723 106.775 303.217 107.763 302.476 107.022 C 301.982 106.281 299.265 107.516 299.512 106.034 C 300.006 105.293 302.229 106.034 302.476 104.799 C 300.5 105.54 300.747 103.811 299.018 104.058 C 297.783 104.305 298.524 106.281 296.795 106.034 C 296.795 106.528 296.795 107.022 296.301 107.022 C 296.301 108.257 297.042 108.504 296.795 109.739 C 295.313 111.221 294.078 112.95 292.843 114.432 C 292.596 114.679 291.608 114.679 291.361 115.173 C 290.867 115.914 291.114 116.902 290.62 117.396 C 289.879 118.384 287.903 119.125 287.903 120.113 C 287.656 121.595 285.433 122.583 285.186 122.83 C 284.692 123.324 284.939 124.312 284.692 125.053 C 284.198 125.3 283.457 125.3 283.21 125.794 C 282.469 126.288 282.963 127.029 282.222 127.77 C 281.728 128.511 280.246 129.005 279.505 129.746 C 279.011 130.487 279.011 131.969 278.27 132.463 L 276.788 133.204 C 276.294 133.698 276.541 134.686 276.047 135.18 C 275.059 136.662 273.33 137.897 272.836 138.638 C 271.848 140.367 270.86 140.861 270.119 141.355 C 269.872 141.602 270.119 142.59 270.119 142.837 C 268.884 144.319 267.155 145.307 266.661 146.542 C 265.426 148.271 264.191 149.259 262.956 150.494 L 258.757 155.187 C 257.769 156.669 256.04 158.151 255.546 158.645 C 255.052 159.386 255.299 160.374 254.805 160.868 C 254.064 161.609 253.323 162.103 252.829 163.091 C 250.359 165.808 248.136 168.278 245.666 170.501 C 242.455 173.959 238.256 178.405 235.292 181.122 C 235.045 181.369 233.81 181.369 233.316 181.616 C 232.081 182.851 230.846 184.333 229.858 185.074 C 229.364 185.321 228.376 186.556 227.635 186.556 C 226.4 186.556 226.647 188.532 224.918 187.791 C 228.87 169.266 235.045 153.211 243.69 139.379 L 246.654 139.379 C 246.901 137.897 246.16 135.674 246.654 135.18 L 247.889 135.18 C 247.889 133.945 246.654 133.451 247.148 131.228 C 247.889 131.228 248.63 132.216 249.371 131.228 C 248.383 131.228 248.63 129.993 247.889 129.746 C 247.889 128.758 245.913 129.252 245.666 128.511 C 246.901 127.029 245.419 126.288 244.925 125.053 C 243.69 123.324 242.455 124.312 240.973 123.324 C 240.973 122.583 240.726 122.089 240.232 121.348 L 236.774 121.348 C 238.256 120.113 235.539 119.125 235.292 117.396 C 233.069 118.384 232.575 117.149 232.081 117.89 C 231.834 118.137 230.846 117.643 230.599 117.89 C 230.352 118.137 229.364 119.866 229.364 120.113 C 229.117 120.854 228.623 120.36 228.623 120.607 C 228.129 121.348 228.129 122.336 227.635 122.83 C 227.635 123.324 226.647 123.324 226.4 123.324 C 226.153 124.065 226.153 125.053 225.659 125.794 C 225.659 125.794 225.165 125.547 224.918 125.794 C 224.671 125.794 225.165 126.782 224.918 127.029 C 224.671 127.276 223.683 128.017 223.683 128.511 C 223.189 129.252 222.942 130.734 222.201 131.969 L 221.46 131.969 C 221.213 131.969 221.707 132.957 221.46 133.204 C 221.213 133.698 220.472 134.192 220.225 134.686 C 219.484 135.921 218.496 137.65 218.002 137.897 C 217.755 138.144 218.249 139.132 218.002 139.379 C 217.755 139.873 217.014 140.367 216.767 140.861 C 216.273 141.849 216.273 142.59 216.026 143.578 C 215.532 145.06 214.544 146.542 214.05 147.777 C 212.074 152.223 210.098 156.916 209.11 160.868 C 209.11 161.362 208.616 161.362 208.369 161.609 C 207.628 163.585 207.134 165.808 206.887 166.549 C 206.64 167.29 206.64 167.784 206.146 168.525 C 205.405 169.76 205.405 172.724 204.911 175.441 C 204.664 177.664 203.676 179.64 203.429 181.616 C 202.688 191.99 203.676 201.376 207.628 205.822 C 209.11 205.822 209.357 206.316 209.851 207.304 L 215.285 207.304 C 214.791 210.021 218.496 208.045 218.002 210.515 C 223.683 211.75 227.635 211.256 230.599 208.539 C 231.093 207.798 231.834 207.551 232.575 207.304 C 234.057 206.316 235.292 204.587 236.774 204.587 C 237.762 204.587 237.021 204.093 237.515 203.846 C 240.232 201.87 241.714 200.141 243.69 198.165 C 244.678 197.177 244.925 196.436 246.654 195.942 C 246.16 194.707 247.395 194.707 247.889 193.966 C 248.383 193.225 248.383 192.237 249.371 191.249 L 251.347 189.273 C 252.088 188.285 252.829 187.297 253.323 187.297 C 253.076 187.297 254.064 188.285 254.805 187.791 C 253.817 185.074 257.028 186.556 256.04 183.839 C 257.769 183.839 258.016 183.592 258.263 182.357 C 258.51 181.369 259.004 182.11 259.498 181.616 C 259.745 181.369 259.498 180.628 259.498 180.381 C 259.745 180.134 260.98 179.887 260.98 179.393 C 261.227 179.146 260.98 178.652 260.98 178.158 C 261.227 177.911 262.215 177.664 262.215 177.417 C 262.709 177.17 262.709 174.453 263.697 175.935 C 262.709 178.899 261.968 182.604 261.474 185.815 C 261.474 186.803 261.227 187.297 260.98 187.791 C 259.992 193.719 260.486 203.846 260.98 208.539 C 261.474 210.762 261.474 211.009 261.474 211.997 C 262.215 213.479 262.462 214.961 262.956 216.196 C 263.944 218.172 264.932 219.407 265.179 221.136 C 266.167 222.371 266.908 220.148 267.402 221.877 C 267.649 223.853 268.884 225.088 270.119 226.57 C 273.083 227.805 276.294 228.793 279.011 228.052 C 279.752 227.805 280.74 227.805 281.728 227.311 C 281.975 227.311 281.975 226.076 282.222 225.829 C 282.963 225.335 283.951 225.335 284.692 225.088 C 284.939 224.841 285.186 224.347 285.927 223.853 C 286.421 223.359 287.409 223.606 287.903 223.112 C 288.397 222.618 288.15 221.63 288.644 221.136 C 289.138 220.395 290.373 220.148 290.62 219.654 L 293.584 216.937 C 293.584 216.69 293.337 215.949 293.584 215.455 C 294.572 214.22 296.054 213.232 296.795 211.997 C 298.03 210.515 298.771 209.28 299.512 207.798 C 300.5 206.81 300.747 206.069 300.994 205.081 C 301.241 204.834 302.229 204.834 302.476 204.587 C 302.476 204.093 302.229 203.352 302.476 203.105 C 302.476 202.858 303.711 202.611 303.958 202.364 C 304.205 201.87 303.711 201.376 303.958 201.129 C 303.958 200.882 305.193 200.635 305.193 200.388 C 305.44 199.894 305.193 199.153 305.193 198.906 C 305.193 198.906 306.428 198.659 306.675 198.165 C 306.922 197.918 306.428 197.177 306.675 196.683 C 306.675 196.436 307.91 196.436 308.157 195.942 C 308.157 195.942 307.91 195.201 308.157 194.707 C 308.157 194.46 309.145 194.213 309.392 193.966 C 309.639 193.719 309.145 193.225 309.392 192.731 C 309.392 192.484 310.627 192.237 310.874 191.99 C 311.121 191.249 311.121 190.261 311.368 190.014 L 312.109 189.273 L 313.591 187.297 C 316.308 183.098 313.838 188.285 316.308 184.58 C 317.049 183.345 317.296 182.604 317.543 181.863 C 317.543 181.616 318.778 181.369 319.025 181.122 C 319.272 180.875 318.778 180.134 319.025 179.64 C 319.025 179.393 320.26 179.146 320.507 178.899 C 320.754 178.158 320.507 177.17 321.001 176.182 C 321.248 176.182 322.236 175.935 322.483 175.688 C 322.73 175.441 322.236 174.453 322.483 174.206 C 322.977 173.465 323.965 173.218 324.459 172.971 C 324.706 172.477 324.212 171.736 324.459 171.489 C 324.459 171.242 325.694 170.995 325.941 170.748 C 326.188 170.254 325.694 169.76 325.941 169.266 C 326.188 169.019 327.176 169.019 327.176 168.525 C 328.411 166.549 327.423 164.326 328.658 163.091 C 326.435 163.338 326.435 161.609 326.435 159.633 C 325.941 158.645 324.953 159.88 324.459 159.633 C 323.471 159.139 323.718 157.904 323.224 157.657 C 322.236 157.163 319.272 158.645 319.766 156.175 C 320.013 156.175 320.507 155.681 319.766 155.681 Z  M 286.668 147.777 C 287.409 147.777 286.915 148.518 286.668 148.518 C 285.186 154.94 282.222 160.621 280.246 167.043 L 279.011 171.983 L 279.011 173.218 C 278.27 173.959 277.529 177.664 276.788 180.381 C 276.294 181.616 276.047 183.592 275.553 185.074 C 275.553 185.321 275.8 186.309 275.553 186.556 C 274.565 187.297 274.812 189.273 274.071 191.99 C 273.824 192.731 273.33 192.731 273.33 193.225 L 272.836 201.129 C 272.836 201.129 272.095 201.376 272.095 201.87 C 271.601 203.599 270.613 205.081 270.119 207.304 C 269.625 208.539 269.625 210.268 269.378 211.256 C 269.378 211.503 268.637 211.503 268.637 211.997 C 268.39 212.985 268.637 213.726 268.637 214.714 C 266.167 214.467 264.932 212.985 264.438 210.515 C 263.203 210.021 263.944 208.292 263.697 207.304 L 263.697 203.846 C 263.697 203.846 264.438 203.599 264.438 203.105 L 264.438 201.129 C 264.932 197.177 265.673 191.002 266.661 185.815 C 266.661 185.568 267.402 185.568 267.402 185.074 C 267.402 182.604 267.896 179.887 268.637 177.417 C 268.637 176.923 268.143 175.194 268.637 174.7 L 269.378 174.7 C 269.872 172.724 269.378 172.23 270.119 169.76 C 270.119 169.513 271.354 164.573 272.095 163.832 C 272.095 163.832 273.577 162.103 273.33 162.35 C 274.071 161.856 273.824 162.844 274.071 163.091 C 275.306 163.338 273.083 160.127 276.788 160.868 C 276.541 158.892 278.764 158.398 279.505 157.41 C 279.999 156.916 279.752 155.928 280.246 155.187 C 280.74 154.94 281.481 154.446 281.728 153.952 L 286.668 147.777 Z  M 220.225 207.304 C 220.966 204.834 224.424 204.834 225.659 206.563 C 224.424 208.786 221.707 208.539 220.225 207.304 Z  M 267.896 218.419 C 265.92 218.913 266.661 216.937 265.179 216.937 C 265.673 215.949 266.167 216.937 267.896 216.196 L 267.896 218.419 Z  M 302.97 183.345 C 303.217 182.851 303.464 182.604 303.464 182.11 L 304.699 179.393 C 304.946 179.146 305.193 179.64 305.193 178.652 C 305.193 178.158 303.711 181.369 302.723 183.345 L 302.97 183.345 Z  M 318.778 136.415 C 316.802 145.307 313.838 159.139 313.097 169.019 C 312.85 173.218 312.603 177.417 312.356 180.134 C 312.109 183.098 312.85 185.815 313.097 189.026 C 313.344 192.237 313.591 196.189 313.838 198.165 C 314.085 199.153 313.838 200.388 313.838 201.376 C 314.085 202.117 314.332 202.117 314.332 202.858 C 315.073 205.328 314.579 208.045 316.061 209.033 C 316.061 209.28 315.814 210.021 316.061 210.268 C 316.061 210.515 316.555 210.268 316.802 210.268 C 316.802 210.515 316.555 211.503 316.802 211.75 C 317.543 214.467 319.025 217.184 320.754 217.431 C 321.495 217.431 321.001 217.925 321.495 218.172 C 322.73 218.913 324.706 219.901 325.694 220.148 C 327.176 220.642 327.917 219.16 329.646 219.407 C 329.646 219.407 330.14 220.148 330.387 220.148 C 331.375 220.395 331.869 220.642 332.363 220.889 C 333.104 221.136 334.092 220.642 334.586 220.889 C 335.574 220.642 336.562 218.666 336.809 218.666 C 336.809 218.419 337.797 218.666 338.044 218.666 C 338.044 218.666 337.797 218.172 338.044 218.172 C 338.291 217.925 339.279 218.419 339.526 218.172 C 340.267 217.431 340.514 216.196 341.502 215.455 C 342.243 214.467 343.725 213.726 344.219 213.232 C 344.713 212.738 344.713 211.503 344.96 211.009 C 345.207 210.762 346.195 210.021 346.195 209.774 C 346.936 208.786 347.924 207.057 348.418 206.316 C 348.912 205.575 348.665 205.081 348.912 204.093 C 349.159 203.846 350.147 203.352 350.394 202.858 C 350.888 202.117 350.888 201.376 351.135 200.882 C 351.382 200.388 352.123 199.894 352.37 199.4 C 352.864 198.659 352.864 197.918 353.358 197.424 C 353.605 196.683 354.346 196.436 354.84 195.942 C 355.087 194.954 355.334 192.978 356.075 191.743 C 356.322 191.496 357.31 190.755 357.557 190.261 C 357.804 189.52 357.804 189.026 358.051 188.285 C 358.792 186.803 359.533 185.568 360.274 184.086 C 360.521 183.592 361.015 182.604 360.274 183.592 C 358.051 185.815 357.31 189.026 355.334 191.743 C 354.84 192.237 354.346 192.484 354.099 192.978 C 353.852 193.225 353.358 194.46 353.358 194.46 C 353.111 195.201 352.864 194.954 352.37 195.201 C 351.629 196.683 350.641 198.165 349.653 199.4 C 348.912 200.635 348.912 201.129 348.418 202.117 C 348.418 202.364 347.183 202.611 346.936 202.858 C 346.442 203.846 346.689 204.587 346.195 205.575 C 346.195 205.822 345.207 206.069 344.96 206.316 C 344.713 206.563 345.207 207.304 344.96 207.551 C 344.713 207.798 343.725 208.045 343.478 208.292 C 343.231 208.539 343.725 209.527 343.478 209.774 C 343.231 209.774 342.49 210.268 342.243 210.268 C 341.996 210.515 342.49 211.503 342.243 211.75 C 341.255 212.738 338.785 215.208 338.785 213.973 C 339.032 212.244 340.514 209.774 340.761 209.033 C 340.761 208.539 340.514 208.045 340.761 207.551 C 340.761 207.304 341.996 206.81 342.243 206.316 C 342.737 205.328 343.478 203.846 344.219 202.858 C 344.466 202.364 345.454 201.87 345.701 201.376 C 346.195 200.882 345.948 200.141 346.195 199.4 C 346.936 198.165 348.418 197.671 348.912 196.683 C 349.406 195.942 349.406 195.201 349.653 194.46 C 350.147 193.966 350.888 193.719 351.135 192.978 C 351.876 191.99 351.876 190.014 352.37 189.026 C 352.617 188.532 353.605 188.285 354.099 187.544 C 354.346 186.803 354.346 186.309 354.84 185.568 C 354.84 185.074 355.581 184.58 356.075 184.086 C 356.569 183.592 356.322 182.851 356.816 182.11 C 357.063 181.616 357.804 181.122 358.051 180.628 C 359.039 178.899 358.792 177.664 359.533 176.676 C 359.78 176.182 360.768 175.441 360.768 174.947 C 361.262 174.453 361.015 173.959 361.509 172.971 C 361.756 172.724 362.744 171.983 362.991 171.736 C 363.485 170.501 363.485 168.772 364.226 167.537 C 364.473 167.043 365.461 166.549 365.708 166.055 C 366.202 165.561 365.955 164.82 366.449 164.079 C 366.449 163.585 367.437 163.338 367.684 162.844 C 368.178 162.103 367.931 161.362 368.425 160.621 C 368.672 160.374 369.413 159.88 369.66 159.386 C 370.401 158.398 369.907 157.41 371.142 157.163 C 372.13 157.163 371.636 156.422 371.142 155.681 C 372.377 155.681 373.118 155.681 374.106 155.681 C 375.094 151.729 378.058 149.506 378.799 145.554 C 379.787 145.554 380.528 145.06 381.022 144.813 C 381.022 142.343 382.998 141.602 382.998 139.132 C 384.233 139.379 383.986 137.65 384.233 137.156 C 384.727 136.662 385.715 137.156 385.715 136.415 C 385.962 135.427 386.95 134.192 386.95 133.698 C 388.432 131.228 389.667 129.499 390.655 127.523 C 391.89 125.053 392.878 123.324 394.113 121.348 C 395.348 118.878 396.336 117.149 397.571 114.926 C 397.818 114.185 397.818 113.691 398.312 112.95 C 398.559 112.456 399.3 111.962 399.547 111.468 C 401.523 108.01 404.24 103.07 405.722 100.353 C 406.216 99.612 406.463 99.118 407.204 98.377 C 407.204 98.13 407.204 97.142 407.204 96.895 C 407.451 96.401 408.192 96.401 408.686 95.66 C 408.933 95.166 408.933 94.672 409.427 94.178 C 409.674 93.437 410.168 93.437 410.662 92.943 C 411.156 91.955 411.403 90.473 412.144 89.485 C 412.391 88.991 413.132 88.25 413.379 88.003 C 413.873 87.509 413.873 86.768 414.861 86.768 C 415.355 86.027 414.12 85.286 414.12 85.286 C 414.12 84.298 415.355 84.545 415.602 83.804 C 415.849 83.063 414.614 82.816 414.861 81.828 C 414.861 81.581 416.343 81.334 416.096 80.346 C 416.096 79.852 414.367 79.605 414.12 80.346 C 414.367 78.864 412.885 78.864 413.379 76.888 C 411.65 76.888 409.18 77.629 410.168 74.912 C 407.451 75.653 405.722 76.641 403.005 76.888 C 402.264 76.641 402.511 76.147 403.005 75.653 C 401.029 75.9 399.794 77.876 398.806 78.864 C 397.818 80.593 397.324 81.828 396.089 82.322 C 395.842 82.569 396.336 83.557 396.089 83.804 C 395.842 84.051 395.101 84.545 394.854 84.545 C 394.607 84.545 395.101 85.78 394.854 86.027 C 394.607 86.274 393.619 86.274 393.372 86.768 C 392.631 87.509 392.878 88.497 392.631 89.485 C 392.631 89.979 391.396 89.979 391.396 90.72 C 391.149 91.461 390.655 90.967 390.655 91.461 C 389.914 92.449 390.161 93.437 389.914 94.178 C 389.667 94.425 388.679 94.672 388.432 94.919 C 388.432 95.166 387.691 96.895 387.691 96.895 C 387.691 98.13 386.703 98.13 386.456 99.118 C 386.456 100.353 384.974 100.847 384.974 101.835 C 384.974 102.576 384.48 102.082 384.233 102.329 C 382.257 106.034 379.787 110.727 378.058 113.691 C 378.058 113.938 377.811 114.432 377.564 114.926 C 375.094 119.619 372.624 123.571 370.401 127.523 C 370.401 127.77 369.66 128.511 369.66 128.758 C 369.66 130.24 368.672 130.734 368.425 131.475 C 368.425 132.463 366.943 132.71 366.943 133.698 C 366.943 134.933 365.708 135.427 365.708 136.415 C 365.708 137.156 365.214 136.909 364.967 137.156 C 364.473 138.144 364.72 138.885 364.226 139.873 C 364.226 139.873 363.485 139.873 363.485 139.873 C 363.485 139.873 363.732 141.108 363.485 141.355 C 363.485 141.602 362.497 141.602 362.25 142.096 C 361.756 142.837 362.003 143.825 361.509 144.813 C 361.509 144.813 360.768 144.813 360.768 144.813 C 360.768 145.06 360.768 145.801 360.768 146.048 C 360.768 146.048 360.274 146.048 360.274 146.048 C 360.027 146.295 360.274 147.283 360.274 147.53 C 360.274 147.53 359.533 147.53 359.533 147.53 C 359.286 147.777 359.533 148.765 359.533 148.765 C 359.533 148.765 358.792 148.765 358.792 148.765 C 358.545 149.012 358.792 150 358.792 150.247 C 358.545 150.494 356.816 151.482 358.051 152.223 C 361.509 146.295 365.708 141.108 368.425 134.192 C 370.401 134.686 369.66 132.957 371.142 132.957 C 371.389 132.216 370.895 131.969 370.401 131.475 C 369.907 131.228 371.389 130.981 371.142 130.981 C 371.142 131.228 372.13 131.475 372.13 130.981 C 372.13 130.487 371.142 129.746 371.142 129.499 C 371.389 129.252 372.377 130.24 372.624 130.24 C 372.871 129.993 374.106 126.535 372.624 127.523 C 372.871 125.794 373.612 128.264 374.847 126.782 C 374.106 128.264 373.365 129.005 373.365 130.24 C 373.365 130.734 372.624 130.981 372.624 130.981 C 372.377 131.722 373.612 131.722 373.365 132.957 C 373.118 133.204 372.13 134.192 372.13 134.192 C 371.636 135.427 371.636 136.415 371.142 137.156 C 371.142 137.403 370.401 137.156 370.401 137.65 C 370.401 137.65 371.636 138.391 370.401 138.391 C 369.66 138.391 370.154 139.379 370.401 139.873 C 369.413 139.873 369.166 140.367 369.66 141.355 C 368.919 141.108 368.425 141.602 367.684 142.096 C 366.696 144.566 365.955 147.283 364.226 149.506 C 363.979 150 363.238 150.494 362.991 150.988 C 362.003 152.47 361.509 153.458 360.768 154.446 C 360.521 154.693 359.78 155.187 359.533 155.681 C 358.792 157.163 358.792 158.645 358.051 160.127 C 357.804 160.374 357.063 160.868 356.816 161.362 C 356.322 162.103 356.569 162.597 356.075 163.338 C 355.334 164.573 354.84 165.808 354.099 166.796 C 353.111 167.784 352.864 169.513 351.135 169.513 C 351.382 168.772 353.111 166.055 351.876 166.055 C 351.135 167.537 350.641 169.019 349.653 170.254 C 349.406 170.748 348.912 171.242 348.418 171.736 C 348.418 171.983 347.677 172.724 347.677 172.971 C 347.677 173.959 347.183 173.465 346.936 173.712 C 346.195 175.194 346.689 176.182 346.195 177.417 C 346.195 177.664 345.207 177.664 344.96 177.911 C 344.219 179.393 343.725 180.875 343.478 182.851 C 342.737 182.604 342.49 183.098 342.243 183.592 C 341.996 183.592 341.008 184.58 340.761 184.827 C 340.267 186.062 340.267 187.791 339.526 189.026 C 339.279 189.52 338.291 189.767 338.044 190.261 C 337.303 191.99 336.809 192.731 336.068 193.719 C 334.833 195.201 334.586 196.189 333.845 197.424 C 333.598 197.671 332.61 198.165 332.363 198.659 C 331.622 196.189 333.104 193.966 333.104 191.743 C 333.104 191.743 332.61 191.743 332.363 191.743 C 332.363 191.743 332.363 189.767 332.363 189.52 C 332.363 189.52 333.104 188.779 333.104 189.026 C 333.104 188.285 332.61 188.285 332.363 187.544 C 331.869 185.074 333.104 183.839 333.104 182.11 C 333.351 180.628 332.363 180.628 332.363 179.393 C 332.363 179.64 333.104 178.899 333.104 178.652 C 334.586 174.947 332.363 171.489 332.363 169.019 C 333.351 169.019 334.092 170.007 333.845 168.278 C 332.116 165.808 333.845 163.585 333.845 162.103 C 334.092 160.868 333.845 159.88 333.845 158.645 C 334.092 158.398 334.586 158.398 334.586 157.904 C 334.586 156.916 333.845 157.41 334.586 156.422 C 334.586 156.422 334.586 155.187 334.586 154.94 C 334.833 151.976 334.833 150.494 336.068 148.271 C 336.068 147.53 335.574 146.295 335.327 147.53 C 332.857 158.398 328.658 169.019 327.67 179.393 C 327.423 181.616 327.917 183.839 327.67 185.568 C 327.67 186.062 326.929 186.556 326.929 186.309 C 326.929 186.803 327.67 186.556 327.67 186.803 C 327.917 188.038 326.682 187.544 327.67 188.285 C 328.164 188.779 326.929 189.52 326.929 189.52 C 326.435 190.014 327.67 190.508 327.67 190.261 C 327.67 191.002 326.929 190.755 326.929 191.002 C 326.682 191.743 327.67 191.99 327.67 192.237 C 327.67 193.472 326.929 192.978 327.67 193.719 C 328.164 194.213 326.929 195.201 326.929 195.201 C 326.435 195.448 327.67 195.942 327.67 195.942 C 328.164 198.165 328.164 201.129 327.67 200.882 C 326.682 200.141 326.435 198.165 326.188 197.424 C 325.694 194.707 324.953 188.779 326.188 187.544 C 326.435 187.297 325.447 186.309 325.694 185.568 C 325.694 185.321 326.188 184.333 326.188 184.827 C 326.188 183.098 325.694 181.616 325.694 180.134 C 325.694 179.146 326.188 177.664 326.188 176.676 C 326.435 172.724 326.682 168.278 326.929 166.055 C 327.176 165.067 326.682 163.338 326.929 162.103 C 326.929 161.362 327.67 161.115 327.67 160.621 C 327.917 160.127 327.67 159.139 327.67 158.645 C 328.658 153.211 329.399 147.036 330.387 142.837 C 330.881 141.355 330.881 139.873 331.128 138.391 C 331.128 138.391 331.622 138.638 331.622 138.391 C 331.869 138.391 331.622 137.156 331.622 137.156 C 332.61 134.933 333.598 130.734 333.845 130.24 C 334.339 129.746 334.339 129.252 335.327 129.499 C 335.327 128.264 335.327 126.782 335.327 125.3 C 333.351 125.3 333.104 128.017 332.363 128.758 C 332.363 129.005 331.869 129.005 331.622 129.499 C 331.375 130.24 330.881 130.981 330.387 131.475 C 330.14 131.969 330.387 132.957 329.646 132.957 C 329.893 126.782 332.61 122.83 333.845 117.643 C 334.586 117.396 334.833 116.655 335.327 116.408 C 335.821 115.914 337.056 115.667 336.809 114.185 C 335.327 114.185 336.315 111.962 334.586 112.209 C 333.104 111.221 331.869 113.938 331.622 112.209 C 332.363 110.233 330.881 110.48 331.128 108.751 C 328.905 109.492 328.905 109.492 326.929 108.751 C 326.435 109.986 326.682 110.974 326.188 112.209 C 326.188 112.456 325.2 112.703 324.953 112.95 C 324.706 113.197 324.953 113.938 324.953 114.185 C 324.459 115.667 323.965 117.149 323.471 119.125 C 322.73 121.842 322.73 124.806 322.236 126.782 C 321.742 128.264 321.742 129.252 321.495 130.981 C 321.495 130.981 320.754 130.981 320.754 130.981 C 319.766 131.722 321.248 134.192 320.013 134.933 C 319.025 135.921 320.507 138.144 319.519 139.132 C 318.778 139.873 320.013 142.343 318.778 142.096 C 319.025 140.861 317.79 138.391 319.519 138.391 C 319.766 137.65 319.272 134.192 318.778 136.415 Z  M 326.929 142.837 C 326.188 142.837 326.435 143.331 326.188 144.072 C 325.447 143.825 325.694 142.837 326.188 142.837 C 325.694 139.626 327.423 139.626 326.929 142.837 Z  M 368.425 146.048 C 366.449 148.765 370.648 146.295 370.401 144.813 C 371.389 144.813 370.401 147.283 369.66 148.765 C 369.66 149.259 369.413 150.247 369.166 150.988 C 368.919 151.482 367.931 151.976 367.684 152.223 C 367.19 153.458 367.437 154.199 366.943 154.94 C 366.696 155.434 365.955 156.175 365.708 156.422 C 365.214 157.904 365.461 160.127 364.967 161.362 C 364.967 161.609 364.226 161.362 364.226 162.103 C 364.226 162.597 363.485 163.832 362.991 164.82 C 362.744 165.067 362.25 165.561 362.25 165.561 C 361.756 166.302 362.003 167.29 361.509 168.278 C 361.262 168.772 360.521 169.019 360.274 169.513 C 360.027 170.007 359.78 170.501 359.533 170.995 C 359.286 171.489 357.557 174.206 357.557 174.947 C 357.557 175.441 356.816 176.182 356.816 176.676 C 356.569 177.17 356.322 177.911 356.075 178.652 C 355.828 178.899 354.84 179.146 354.84 179.393 C 354.099 180.628 354.099 181.369 353.358 182.851 C 352.123 184.58 351.876 186.556 350.394 188.285 C 350.147 188.779 349.9 188.779 349.653 189.026 C 349.406 189.52 348.418 190.755 348.418 191.743 C 348.418 192.237 347.924 192.731 347.677 192.978 C 346.936 194.707 344.96 196.436 344.219 198.659 C 342.984 198.412 343.972 195.201 345.701 195.942 C 345.701 194.954 345.454 193.225 346.195 192.978 C 346.195 191.496 346.689 192.237 347.677 192.237 C 347.924 190.508 346.442 191.496 347.677 189.52 C 347.924 189.52 348.418 189.767 348.418 189.026 C 348.418 188.532 348.912 186.556 350.394 186.803 C 350.147 185.074 351.382 183.098 351.876 181.369 C 352.123 180.381 353.111 178.652 353.358 177.417 C 353.358 175.194 354.593 173.712 355.334 171.736 C 355.828 170.254 356.075 168.772 356.816 167.537 C 357.063 167.043 357.063 166.055 357.557 165.561 C 357.804 165.067 358.545 164.326 358.792 164.079 C 359.286 162.844 359.533 161.115 360.274 160.127 C 360.521 159.386 360.521 158.645 360.768 157.904 C 361.015 157.41 362.003 156.916 362.25 156.422 C 362.991 155.187 362.991 153.458 363.485 152.223 C 363.732 151.729 364.72 151.482 364.967 150.988 C 365.461 150.494 365.214 149.506 365.708 148.765 C 365.955 148.518 366.696 148.024 366.943 147.53 C 367.437 146.789 366.943 145.801 368.425 146.048 Z  M 362.991 177.911 C 362.744 178.899 361.262 180.628 361.509 180.628 C 361.756 181.122 364.72 177.664 362.991 177.911 Z  M 459.815 11.186 C 458.58 11.186 457.592 10.692 456.11 11.186 C 456.11 11.433 455.616 12.915 455.616 13.162 C 455.122 13.656 454.134 13.656 453.393 14.397 C 453.146 14.644 452.899 15.632 452.652 15.879 C 451.911 17.361 451.17 18.102 450.429 19.09 C 450.182 19.337 449.688 20.325 449.688 20.325 C 449.688 21.066 448.7 21.807 448.206 22.548 C 448.206 22.795 447.465 23.536 447.465 23.536 C 447.218 24.524 446.724 24.03 446.724 24.524 C 445.983 25.759 445.983 26.994 444.995 28.229 C 444.748 30.205 445.489 28.229 445.983 28.229 C 447.959 22.301 452.405 19.09 455.369 14.397 C 455.863 14.397 456.851 12.174 457.345 13.656 C 457.098 13.409 456.357 14.644 457.098 14.397 C 457.345 14.15 458.58 13.409 458.827 13.162 C 459.074 12.421 459.815 12.174 459.815 11.186 Z  M 438.82 40.332 C 441.043 41.073 438.326 41.567 438.326 42.061 C 438.079 42.061 439.314 42.802 438.573 43.296 C 438.573 43.543 438.079 43.296 438.079 43.296 C 437.832 43.543 438.079 44.284 438.079 44.531 C 437.832 44.531 437.338 44.531 437.338 44.531 C 436.597 45.272 437.832 47.989 437.091 49.224 C 435.856 50.706 435.609 52.188 434.374 54.164 C 433.88 54.411 433.633 54.905 433.633 55.646 C 433.386 56.634 432.151 57.128 431.904 58.116 C 431.904 58.857 431.657 58.61 431.41 58.857 C 431.163 59.598 431.163 61.08 430.669 62.315 C 429.681 64.538 428.94 66.02 428.199 67.996 C 427.952 68.49 427.458 68.984 427.458 68.984 C 427.211 70.219 427.211 71.207 426.717 72.936 C 426.717 73.183 425.482 73.43 425.235 73.677 C 424.988 74.418 425.482 74.665 424.988 75.159 C 424.741 75.406 424.741 77.135 424.741 77.135 C 424.741 77.629 424 77.629 424 77.629 C 423.259 79.358 422.518 82.816 421.777 83.557 C 421.777 83.557 421.777 85.039 421.777 85.286 C 421.777 86.027 421.283 85.78 421.036 86.027 C 420.048 88.25 420.048 90.967 418.566 91.708 C 418.319 91.955 418.072 93.437 417.825 93.684 C 417.825 93.931 417.578 94.672 417.331 95.413 C 417.084 96.648 415.849 97.883 415.602 98.871 C 413.873 104.305 411.897 110.974 410.415 114.926 C 409.427 116.655 409.921 117.643 409.427 119.125 C 407.945 124.312 405.722 129.746 404.734 134.439 C 403.746 139.379 403.746 144.319 402.511 149.259 C 403.005 149.753 404.734 150.247 405.228 151.729 C 403.499 155.187 403.499 159.88 402.511 164.079 C 404.981 164.82 407.204 165.561 409.674 166.549 C 409.921 165.314 409.427 164.326 410.415 164.079 C 410.909 165.314 412.885 164.326 414.12 164.573 C 415.849 164.82 416.837 165.561 418.319 165.067 C 419.307 164.326 420.295 163.091 420.789 162.103 C 421.53 161.856 422.518 162.597 422.271 161.115 C 421.036 157.904 422.024 155.681 421.283 152.964 C 422.271 150.988 423.259 149.506 423.012 146.789 C 421.53 146.542 419.554 146.295 418.566 145.801 C 419.554 142.096 420.789 138.885 421.777 135.674 C 422.518 133.204 423.259 129.746 424 128.017 C 424.247 127.276 424.494 126.535 424.494 126.288 C 424.494 125.794 425.235 125.794 425.235 125.794 C 426.47 122.336 426.223 118.384 427.211 115.667 C 427.458 115.42 427.952 115.667 427.952 115.667 C 428.199 115.42 427.952 114.432 427.952 114.432 C 428.693 112.95 428.693 111.962 428.94 110.233 C 428.94 109.739 429.434 109.739 429.434 109.492 C 429.681 108.751 429.434 108.01 429.434 107.269 C 429.434 106.775 430.175 106.775 430.175 106.528 C 430.916 104.552 430.916 102.082 431.41 100.106 C 432.398 99.612 432.892 98.871 432.892 97.636 C 434.621 99.612 433.386 96.154 435.362 96.401 C 434.868 94.672 436.597 94.672 436.844 94.178 C 437.338 93.437 437.091 92.449 437.585 91.461 C 438.326 90.226 438.82 89.238 439.067 88.25 C 440.055 86.274 441.043 84.298 442.031 82.322 C 442.772 81.581 443.019 81.581 443.266 81.087 C 443.513 81.087 443.266 80.346 443.266 80.099 C 445.242 76.888 445.983 74.171 448.7 71.454 C 448.7 72.936 446.23 74.912 447.712 75.159 C 447.712 74.665 448.453 74.665 448.453 75.653 C 447.465 75.653 447.465 76.888 447.465 77.629 C 446.724 77.876 446.477 76.888 445.983 77.629 C 447.959 78.617 444.995 80.099 445.983 81.581 C 444.995 82.322 443.266 85.286 444.995 86.027 C 444.501 84.051 446.23 84.051 447.218 83.557 C 444.007 89.979 441.537 97.142 439.067 104.305 C 440.796 104.552 439.808 103.564 440.302 102.576 C 440.302 102.576 441.043 102.823 441.043 102.576 C 441.29 102.576 441.043 101.588 441.043 101.341 C 442.278 99.365 442.772 96.895 443.76 95.166 C 444.995 91.708 447.465 87.262 447.959 84.792 C 447.959 84.298 448.453 84.298 448.453 84.298 C 448.947 83.063 448.947 82.075 449.441 81.087 C 449.935 79.605 450.429 78.617 450.923 78.123 C 451.17 78.123 450.676 77.382 450.923 77.135 C 451.664 75.653 451.911 74.171 452.405 72.936 C 453.64 69.478 455.369 65.773 456.851 62.315 C 457.345 60.339 458.086 59.351 458.086 58.116 C 458.333 57.375 458.827 57.869 459.074 57.375 C 459.815 55.399 460.309 52.435 461.297 51.694 C 461.297 51.447 461.297 50.706 461.297 50.459 C 461.791 48.73 462.779 46.754 463.52 46.013 C 463.52 46.013 463.52 45.272 463.52 45.272 C 464.014 43.79 465.249 41.32 465.99 40.826 C 465.99 40.826 465.743 39.838 465.99 39.591 C 465.99 38.356 466.731 37.121 467.225 35.639 C 467.966 33.91 468.954 32.181 469.695 30.205 C 470.189 28.97 470.683 27.982 470.93 27.241 C 471.177 26.994 470.93 25.759 470.93 25.512 C 470.93 25.018 471.671 25.018 471.671 25.018 C 472.412 23.289 473.153 21.313 472.659 19.584 C 471.918 19.584 471.918 19.09 471.177 19.09 C 471.177 19.584 471.177 20.572 470.683 19.584 C 470.189 17.855 469.942 15.385 467.472 14.644 C 466.978 15.385 467.225 17.114 465.496 16.867 C 465.496 15.632 465.496 14.644 464.261 14.644 C 463.026 15.385 462.532 16.867 461.791 16.867 C 460.309 16.867 460.062 18.349 459.074 18.349 C 458.333 18.596 458.58 18.843 458.333 19.09 C 457.592 19.337 456.851 19.09 456.11 19.584 C 455.863 19.831 455.863 20.819 455.616 21.066 C 455.122 21.313 454.381 21.066 453.887 21.56 C 452.899 22.054 451.417 23.536 450.923 24.524 C 450.182 25.018 449.935 25.018 449.441 25.512 C 448.7 26.253 448.453 26.994 447.959 28.229 C 447.959 28.229 447.465 27.982 447.218 28.229 C 447.218 28.229 447.218 28.97 446.971 29.217 C 446.971 29.464 445.983 29.711 445.736 30.205 C 443.513 33.663 442.525 37.368 439.561 40.332 C 439.561 40.085 439.067 39.591 438.82 40.332 Z  M 450.429 74.665 C 450.676 73.677 450.923 73.43 451.17 72.195 C 452.405 72.689 450.923 75.406 450.429 76.641 C 450.429 76.888 450.429 77.629 450.182 77.629 C 449.688 78.123 449.441 78.617 449.441 79.358 C 447.959 78.864 450.182 75.653 450.429 74.665 Z  M 411.65 159.88 C 411.403 161.115 410.662 160.374 411.403 157.904 C 411.65 156.422 411.65 159.633 411.65 159.88 Z  M 435.856 112.209 C 436.35 112.95 433.88 114.432 435.856 114.926 C 435.609 113.444 437.832 110.727 435.856 112.209 Z  M 402.264 181.863 C 400.535 184.58 400.288 189.273 400.041 193.719 C 398.806 194.46 397.324 194.954 396.089 195.448 C 396.089 196.93 395.595 197.918 394.36 198.165 C 394.36 197.424 394.854 196.436 393.866 196.189 C 392.878 202.364 389.42 206.069 389.173 213.726 C 389.914 213.726 389.914 214.467 390.655 214.961 C 390.161 214.467 391.643 213.973 391.396 215.455 C 391.643 216.937 391.149 217.678 390.902 218.666 C 393.372 218.913 395.348 219.901 398.065 220.395 C 395.842 217.184 401.77 219.16 404.24 218.666 C 404.487 216.443 407.451 215.455 407.698 214.961 C 408.192 214.22 408.439 212.985 408.439 212.738 C 409.427 209.527 409.921 207.798 410.909 205.328 C 412.391 201.87 413.873 197.671 414.12 195.448 C 414.12 194.954 413.379 194.707 413.379 194.213 C 413.379 193.966 414.614 193.719 414.367 192.978 C 413.379 192.978 412.391 193.225 412.391 192.731 C 411.403 191.496 412.638 190.508 412.391 189.52 C 412.391 188.779 412.144 188.038 411.897 187.05 C 411.156 185.568 410.415 184.58 409.921 184.086 C 409.674 183.839 410.415 183.098 410.168 182.851 C 409.427 182.357 408.933 182.357 407.698 182.357 C 406.216 182.604 406.957 185.321 405.228 185.568 C 405.722 182.851 404.981 181.616 402.264 181.863 Z  M 403.252 191.249 C 403.252 189.026 403.993 187.05 405.228 186.062 C 406.216 186.062 404.981 191.496 403.252 191.249 Z " fill="rgb(255,255,255)"/></svg>